<svg width="32" height="32" viewBox="0 0 32 32" fill="none" xmlns="http://www.w3.org/2000/svg">
<path fill-rule="evenodd" clip-rule="evenodd" d="M27.9261 4.07394C27.2384 3.38631 26.3058 3 25.3333 3H6.66667C5.69421 3 4.76157 3.38631 4.07394 4.07394C3.38631 4.76158 3 5.69421 3 6.66667V20C3 20.9725 3.38631 21.9051 4.07394 22.5927C4.76157 23.2804 5.6942 23.6667 6.66667 23.6667H22.2525L27.2929 28.7071L29 30.4142V28V6.66667C29 5.69421 28.6137 4.76158 27.9261 4.07394ZM10.5 15C11.3284 15 12 14.3284 12 13.5C12 12.6716 11.3284 12 10.5 12C9.67157 12 9 12.6716 9 13.5C9 14.3284 9.67157 15 10.5 15ZM17 13.5C17 14.3284 16.3284 15 15.5 15C14.6716 15 14 14.3284 14 13.5C14 12.6716 14.6716 12 15.5 12C16.3284 12 17 12.6716 17 13.5ZM20.5 15C21.3284 15 22 14.3284 22 13.5C22 12.6716 21.3284 12 20.5 12C19.6716 12 19 12.6716 19 13.5C19 14.3284 19.6716 15 20.5 15Z" fill="white"/>
</svg>
