<svg id="Camada_1" data-name="Camada 1" xmlns="http://www.w3.org/2000/svg" viewBox="0 0 25.14 25.14"><defs><style>.cls-1{fill:none;stroke:#fff;stroke-miterlimit:10;}</style></defs><title>img-user</title><path class="cls-1" d="M3.14,7.51a11.08,11.08,0,0,1,4-4,10.59,10.59,0,0,1,5.45-1.47A10.59,10.59,0,0,1,18,3.53a11,11,0,0,1,4,4A10.56,10.56,0,0,1,23.47,13,10.55,10.55,0,0,1,22,18.4a11,11,0,0,1-4,4,10.59,10.59,0,0,1-5.45,1.47,10.59,10.59,0,0,1-5.45-1.47,11.08,11.08,0,0,1-4-4A10.55,10.55,0,0,1,1.67,13,10.56,10.56,0,0,1,3.14,7.51ZM8.2,21.39a9.54,9.54,0,0,0,8.74,0,9.27,9.27,0,0,0,3.37-2.9,3,3,0,0,0-.73-1.56,2.9,2.9,0,0,0-1.47-.9l-1.41-.39a6.34,6.34,0,0,1-8.26,0L7,16a2.9,2.9,0,0,0-1.47.9,3,3,0,0,0-.72,1.56A9.32,9.32,0,0,0,8.2,21.39Zm.11-8.08a4.92,4.92,0,0,0,8.52,0,4.91,4.91,0,0,0,0-4.92,4.91,4.91,0,0,0-6.72-1.81,5,5,0,0,0-2.46,4.27A4.83,4.83,0,0,0,8.31,13.31Z"/></svg>