<svg id="Camada_1" data-name="Camada 1" xmlns="http://www.w3.org/2000/svg" viewBox="0 0 1824 420"><defs><style>.cls-1,.cls-3{fill:#fff}.cls-2{fill:#0c88eb}.cls-2,.cls-3{fill-rule:evenodd}</style></defs><title>Prancheta 3</title><path class="cls-1" d="M764.5 136.63l-.17.17q-22.12-17.31-51.41-17.31-35.43 0-60.39 25t-24.95 60.31q0 35.28 24.95 60.31t60.39 25q29.28 0 51.41-17.31l.17.17.33-.33a16.94 16.94 0 1 1 24 23.95l-.34.34.17.16q-32.28 27-75.7 27-49.41 0-84.35-34.94t-34.93-84.35q0-49.41 34.93-84.35t84.35-34.94q43.43 0 75.7 27l-.17.16c.11.11.22.23.34.34a16.94 16.94 0 1 1-24 24zM882.32 157.76a17 17 0 0 1 0 33.94h-.16a47.61 47.61 0 0 0-34.94 14.47 46.43 46.43 0 0 0-14.31 31.44 27.42 27.42 0 0 1 .17 3v64.22q0 9.32-5 14.3a16.85 16.85 0 0 1-24 0q-5-5-5-14.64v-64.21q.33-33.94 24.29-57.9 23.03-22.96 58.95-24.62zM1020.28 182.38q24.3 24.3 24.29 58.73t-24.29 58.73q-24.28 24.29-58.72 24.29t-58.73-24.29q-24.3-24.3-24.29-58.73t24.29-58.73q24.28-24.28 58.73-24.29t58.72 24.29zm-58.72 9.32a49.29 49.29 0 0 0-34.94 84.18 49.29 49.29 0 0 0 84.18-34.94 49.13 49.13 0 0 0-49.24-49.24zM1136 157.76q35.1 2 57.73 24.62 24 24 24.29 57.9v64.21q0 9.66-5 14.64a16.85 16.85 0 0 1-24 0q-5-5-5-14.3v-64.22a25.14 25.14 0 0 1 .17-3 46.43 46.43 0 0 0-14.31-31.44A47.61 47.61 0 0 0 1135 191.7h-.66a47.6 47.6 0 0 0-34.94 14.47 46.39 46.39 0 0 0-14.4 31.44 27.42 27.42 0 0 1 .17 3v64.22q0 9.32-5 14.3a16.85 16.85 0 0 1-24 0q-5-5-5-14.64v-64.21q.33-33.94 24.29-57.9 22.62-22.62 57.73-24.62zM1283.39 257.58l-27.61 56.9a19 19 0 0 1-3.33 4.82 16.43 16.43 0 0 1-11.81 4.83 16 16 0 0 1-11.82-4.91 16.16 16.16 0 0 1-4.82-11.73 15.5 15.5 0 0 1 2.49-8.65l98.66-203.3a16.49 16.49 0 0 1 3.49-5 15.84 15.84 0 0 1 11.82-5 16.19 16.19 0 0 1 11.81 5 17 17 0 0 1 3.16 4.33l98.66 203.3a15.74 15.74 0 0 1 2.82 9.32 16.7 16.7 0 0 1-28.45 11.81 18.68 18.68 0 0 1-3.32-4.82h-.14l-27.62-56.9zm97.83-33.28l-40.76-84-40.93 84zM1463.44 240.28q.33-33.94 24.29-57.9 24.29-24.28 58.73-24.29t58.73 24.29q24.29 24.3 24.29 58.73t-24.29 58.73q-24.3 24.29-58.73 24.29-27.78 0-49.08-16v65.57a17 17 0 0 1-33.94 0zm33.77-2.67a27.42 27.42 0 0 1 .17 3v6.32a49.35 49.35 0 1 0 83.93-40.84 49.26 49.26 0 0 0-84.1 31.52zM1636.17 240.28q.33-33.94 24.29-57.9 24.3-24.28 58.73-24.29t58.73 24.29q24.28 24.3 24.29 58.73t-24.29 58.73q-24.3 24.29-58.73 24.29-27.78 0-49.08-16v65.57a17 17 0 0 1-33.94 0zm33.78-2.67c.1 1 .16 2 .16 3v6.32a49.35 49.35 0 1 0 83.89-40.84 49.25 49.25 0 0 0-84 31.52z"/><path class="cls-2" d="M177.05 290.67A81.4 81.4 0 0 1 41 230.33c0-1.6 0-3.19.14-4.76a81.39 81.39 0 0 0 135.88 55.57 155.81 155.81 0 0 0 185.32 12.68 95.34 95.34 0 0 0 157.36-67.57c.08 1.58.12 3.17.12 4.78a95.35 95.35 0 0 1-157.48 72.32 155.85 155.85 0 0 1-185.32-12.68z"/><path class="cls-3" d="M343.17 182.75v15.45l13.38 7.73 12.62 7.29V183.5l-26-15.02v14.27zM396.7 165.95v-.5l-13.38-7.73-13.38-7.73-13.39 7.73-13.38 7.73v.5l13.38 7.73 13.39 7.73 13.38-7.73 13.38-7.73z"/><path class="cls-3" d="M429.76 135.82A155.83 155.83 0 0 0 124.15 149h-1.73a81.4 81.4 0 1 0 54.63 141.74 155.85 155.85 0 0 0 185.32 12.68 95.35 95.35 0 1 0 67.39-167.53zM279.32 295.75A119.07 119.07 0 1 1 390 132.87a51.31 51.31 0 0 0-43.75 2.38 77.81 77.81 0 1 0-3.53 88 51.26 51.26 0 0 0 43.45 5.89 119 119 0 0 1-106.85 66.61zM369.13 222a41.39 41.39 0 1 1 41.39-41.39A41.39 41.39 0 0 1 369.13 222z"/><path class="cls-3" d="M370.86 183.25v30.41l13.38-7.73 13.39-7.73v-30.4l-13.39 7.73-13.38 7.72z"/></svg>