<svg id="Camada_1" data-name="Camada 1" xmlns="http://www.w3.org/2000/svg" viewBox="0 0 752 189"><defs><style>.cls-1{fill:#fff}</style></defs><title>logo-cronapp</title><path class="cls-1" d="M321.73 125.48c-7.91 9.86-17.79 14.87-29.35 14.87H292c-9.61 0-17.62-3.47-23.8-10.31s-9.29-15.67-9.29-26.47v-1.88c0-10.89 3-19.86 9-26.67s13.72-10.17 23.26-10.17h.39c11.9.06 21.93 5 29.83 14.55l.33.41 7.75-8.11-.26-.32a46.61 46.61 0 0 0-16.42-12.72 48.78 48.78 0 0 0-20.63-4.5h-1c-13.21 0-24 4.42-32 13.13S247.07 87.72 247.07 102v1.29c0 14.48 4.21 26.19 12.53 34.8s19.51 13.06 33.31 13.06c14.8-.06 27.13-6 36.65-17.67l.26-.32-7.76-8.05zM372.05 74h-.13a26.91 26.91 0 0 0-22.61 12V75.72h-11.82v73.64h11.82v-35.79c0-8.84 2.11-15.95 6.26-21.13s10-7.71 17.41-7.71h2.13V74.14h-.43c-.86-.14-1.75-.14-2.63-.14zM411.93 74h-.8c-10.66 0-19.37 3.61-25.88 10.74s-9.81 16.3-9.81 27.3v1c0 11 3.3 20.18 9.81 27.3s15.22 10.74 25.88 10.74h.8c10.7 0 19.43-3.61 25.95-10.74s9.74-16.26 9.74-27.3v-1c0-11-3.27-20.23-9.74-27.3S422.63 74 411.93 74zm0 66.37h-.8c-7.11 0-12.91-2.51-17.22-7.46s-6.65-11.69-6.65-20.09v-.52c0-8.5 2.17-15.09 6.65-20.15 4.33-4.91 10.12-7.4 17.22-7.4h.8c7.08 0 12.9 2.49 17.29 7.39s6.58 11.8 6.58 20.16v.52c0 8.38-2.21 15.14-6.58 20.09s-10.22 7.44-17.29 7.44zM511.53 81.18C506.85 76.4 500.1 74 491.47 74h-.26a28.47 28.47 0 0 0-23.28 11.34v-9.6h-11.82v73.64h11.82v-37.1c0-8.27 2.06-15 6.13-20a19.65 19.65 0 0 1 16.09-7.51h.26c11 0 16.38 5.55 16.38 17v47.67h11.82v-47.75c0-8.82-2.38-15.69-7.08-20.51zM560.47 74h-.13a43.42 43.42 0 0 0-17.1 3.39 38.58 38.58 0 0 0-13.36 9l-.31.33 7.28 7.72.34-.36a30.79 30.79 0 0 1 9.94-6.61 29.57 29.57 0 0 1 12.14-2.74h.61c6.1 0 10.65 1.46 13.53 4.33 2.63 2.61 4 6.5 4 11.54v2.88c-17.49 0-30 2-38.32 5.92-8.5 4-12.63 10.23-12.63 18.89 0 6.78 2.38 12.33 7.06 16.49s10.8 6.32 18.29 6.32h.19a31.46 31.46 0 0 0 15.49-3.87 27.77 27.77 0 0 0 9.85-8.85v11h11.86v-47.17c0-18.47-9.94-28.21-28.73-28.21zm-12.9 43.45c6.27-2.41 16.29-3.68 29.8-3.77-.16 7.57-2.55 14-7.1 19a22.9 22.9 0 0 1-17.83 7.66h-.13c-8.67 0-14.06-4.42-14.06-11.54 0-5.19 3.05-8.91 9.32-11.37zM637 74h-.8a34.5 34.5 0 0 0-15.06 3.4 26.68 26.68 0 0 0-10.27 8.27v-9.95h-11.79v104.05h11.82v-40.34a26.63 26.63 0 0 0 10.27 8.2 33.73 33.73 0 0 0 15.06 3.47h.8c10.05 0 18.31-3.62 24.56-10.75s9.34-16.25 9.34-27.29v-1c0-11-3.14-20.23-9.34-27.29S647.08 74 637 74zm22.08 38.3v.52c0 8.38-2.21 15.14-6.58 20.09s-10.06 7.46-17.09 7.46h-.87a21.61 21.61 0 0 1-17-7.46c-4.4-4.93-6.64-11.69-6.64-20.09v-.52c0-8.36 2.21-15.14 6.58-20.15s10.08-7.4 17.09-7.4h.87c7 0 12.76 2.49 17.09 7.39s6.58 11.78 6.58 20.14zM742.66 84.73C736.41 77.59 728.15 74 718.1 74h-.8a34.5 34.5 0 0 0-15.06 3.4A26.6 26.6 0 0 0 692 85.65v-9.93h-11.85v104.05H692v-40.34a26.67 26.67 0 0 0 10.26 8.2 33.81 33.81 0 0 0 15.07 3.47h.8c10 0 18.31-3.62 24.56-10.75S752 124.1 752 113.06v-1c0-11.06-3.14-20.27-9.34-27.33zm-2.48 27.55v.52c0 8.38-2.21 15.14-6.58 20.09s-10.07 7.46-17.1 7.46h-.86a21.61 21.61 0 0 1-17-7.46C694.2 128 692 121.2 692 112.8v-.52c0-8.36 2.21-15.14 6.58-20.15s10.08-7.4 17.09-7.4h.86c7 0 12.77 2.49 17.1 7.39s6.55 11.8 6.55 20.16zM62.34 120.89v28a1.62 1.62 0 0 0 .84 1.42l14.43 8 10.12 6a1.62 1.62 0 0 0 2.45-1.4v-27.97a1.59 1.59 0 0 0-.82-1.4l-24.6-14.06a1.62 1.62 0 0 0-2.42 1.41zM108.76 104.07l-14.39-8.16a1.64 1.64 0 0 0-1.59 0l-14.07 7.83-11.82 6.75a1.62 1.62 0 0 0 0 2.8l25.49 15.15a1.61 1.61 0 0 0 1.63 0l14.58-8.33 11.31-6.29a1.62 1.62 0 0 0 .1-2.82zM124.52 120.46a1.62 1.62 0 0 0-2.41-1.42l-10.69 6-14.49 8.49a1.61 1.61 0 0 0-.8 1.4v28.56a1.62 1.62 0 0 0 2.44 1.4l11.2-6.57 13.94-8a1.63 1.63 0 0 0 .81-1.41z"/><path class="cls-1" d="M204.58 78.28a4.88 4.88 0 0 1-2.49-3.67c-2.78-22.82-22.4-40.94-45.73-40.94a45.85 45.85 0 0 0-20.57 4.66 4.94 4.94 0 0 1-6.43-2c-9.6-16.64-28-27-48.58-27-30.4-.1-56.35 23.14-55.87 53.67v5.45a6.42 6.42 0 0 1-3.22 4.39C7.6 79.43 0 95.57 0 111.47a38.81 38.81 0 0 0 39.7 38.88h5.76V141H39.7a29.5 29.5 0 0 1-29.93-29.53c0-14.73 7.88-28.71 20.62-31.54a5 5 0 0 0 3.89-4.73V63c-.08-25 21-44 46.5-44 20.87 0 38.39 12.21 44.05 30.69a4.89 4.89 0 0 0 6.1 3.25 4.75 4.75 0 0 0 1.84-1c6.39-5.71 14-8.47 23.59-8.47 19.69 0 36.5 16.75 36.5 36.65a4.87 4.87 0 0 0 3.13 4.5c11.29 4.38 19 14.26 19 26.88 0 16.67-11.82 29.69-28.4 29.51h-46.06v9.37h46.07c21.83.59 38.17-17.4 38.17-38.88 0-14.65-8.32-26.63-20.19-33.22z"/></svg>