<svg xmlns="http://www.w3.org/2000/svg" width="128" height="128" viewBox="0 0 44.502 44.502"><g fill="#919191"><path d="M9.862 35.638h24.779c0-5.546-3.863-10.203-9.113-11.604 2.75-1.248 4.668-4.013 4.668-7.229a7.943 7.943 0 0 0-15.885 0 7.934 7.934 0 0 0 4.668 7.229c-5.254 1.401-9.117 6.058-9.117 11.604zM1.5 14.169a1.5 1.5 0 0 0 1.5-1.5V4.333h8.336a1.5 1.5 0 0 0 0-3H2.775A2.777 2.777 0 0 0 0 4.108v8.561c0 .828.67 1.5 1.5 1.5zM41.727 1.333h-8.562a1.501 1.501 0 0 0 0 3h8.336v8.336a1.501 1.501 0 0 0 3 0v-8.56a2.778 2.778 0 0 0-2.774-2.776zM43.002 30.333a1.5 1.5 0 0 0-1.5 1.5v8.336h-8.336a1.5 1.5 0 0 0 0 3h8.56a2.78 2.78 0 0 0 2.776-2.776v-8.56a1.5 1.5 0 0 0-1.5-1.5zM11.336 40.169H3v-8.336a1.5 1.5 0 0 0-3 0v8.56a2.779 2.779 0 0 0 2.775 2.776h8.561a1.5 1.5 0 0 0 0-3z"/></g></svg>